<svg version="1.1"
     xmlns="http://www.w3.org/2000/svg" xmlns:xlink="http://www.w3.org/1999/xlink" xmlns:a="http://ns.adobe.com/AdobeSVGViewerExtensions/3.0/"
     x="0px" y="0px" viewBox="0 0 1170 134" style="enable-background:new 0 0 1170 134;"
     xml:space="preserve">
<style type="text/css">
    .st0{fill:#143546;}
    .st1{fill:#FCFCFD;}
    .st2{fill:#FCFDFD;}
</style>
<defs>

</defs>
<g id="service-1-form">
    <path class="st0" d="M1095,0c25,0,50,0,75,0c0,44.7,0,89.3,0,134c-390,0-780,0-1170,0C0,89.3,0,44.7,0,0c25.3,0,50.7,0,76,0
        c0.6,19.8,15.6,35,34.8,35c19.5,0.1,34.6-15,35.2-35c56,0,112,0,168,0c0.6,19.8,15.6,35,34.8,35c19.5,0.1,34.6-15,35.2-35
        c56.7,0,113.3,0,170,0c0.6,19.8,15.6,35,34.8,35c19.5,0.1,34.6-15,35.2-35c53.7,0,107.3,0,161,0c0.6,19.8,15.6,35,34.8,35
        c19.5,0.1,34.6-15,35.2-35c55.7,0,111.3,0,167,0c1.6,20.2,17,35,36.5,35C1078,35,1093.5,20.2,1095,0z"/>
    <path class="st1" d="M1095,0c-1.5,20.2-17,35-36.5,35c-19.5,0-35-14.8-36.5-35C1046.3,0,1070.7,0,1095,0z"/>
    <path class="st2" d="M146,0c-0.6,20-15.7,35.1-35.2,35C91.6,35,76.6,19.8,76,0C99.3,0,122.7,0,146,0z"/>
    <path class="st2" d="M384,0c-0.6,20-15.7,35.1-35.2,35C329.6,35,314.6,19.8,314,0C337.3,0,360.7,0,384,0z"/>
    <path class="st2" d="M624,0c-0.6,20-15.7,35.1-35.2,35C569.6,35,554.6,19.8,554,0C577.3,0,600.7,0,624,0z"/>
    <path class="st2" d="M855,0c-0.6,20-15.7,35.1-35.2,35C800.6,35,785.6,19.8,785,0C808.3,0,831.7,0,855,0z"/>
</g>
</svg>



<svg version="1.1" xmlns="http://www.w3.org/2000/svg" xmlns:xlink="http://www.w3.org/1999/xlink" xmlns:a="http://ns.adobe.com/AdobeSVGViewerExtensions/3.0/" x="0px" y="0px" viewbox="0 0 1170 134" style="enable-background:new 0 0 1170 134" xml:space="preserve">
  <defs>
    <g id="service-1-form">
      <path class="st0" d="M1095,0c25,0,50,0,75,0c0,44.7,0,89.3,0,134c-390,0-780,0-1170,0C0,89.3,0,44.7,0,0c25.3,0,50.7,0,76,0 c0.6,19.8,15.6,35,34.8,35c19.5,0.1,34.6-15,35.2-35c56,0,112,0,168,0c0.6,19.8,15.6,35,34.8,35c19.5,0.1,34.6-15,35.2-35 c56.7,0,113.3,0,170,0c0.6,19.8,15.6,35,34.8,35c19.5,0.1,34.6-15,35.2-35c53.7,0,107.3,0,161,0c0.6,19.8,15.6,35,34.8,35 c19.5,0.1,34.6-15,35.2-35c55.7,0,111.3,0,167,0c1.6,20.2,17,35,36.5,35C1078,35,1093.5,20.2,1095,0z"></path>
      <path class="st1" d="M1095,0c-1.5,20.2-17,35-36.5,35c-19.5,0-35-14.8-36.5-35C1046.3,0,1070.7,0,1095,0z"></path>
      <path class="st2" d="M146,0c-0.6,20-15.7,35.1-35.2,35C91.6,35,76.6,19.8,76,0C99.3,0,122.7,0,146,0z"></path>
      <path class="st2" d="M384,0c-0.6,20-15.7,35.1-35.2,35C329.6,35,314.6,19.8,314,0C337.3,0,360.7,0,384,0z"></path>
      <path class="st2" d="M624,0c-0.6,20-15.7,35.1-35.2,35C569.6,35,554.6,19.8,554,0C577.3,0,600.7,0,624,0z"></path>
      <path class="st2" d="M855,0c-0.6,20-15.7,35.1-35.2,35C800.6,35,785.6,19.8,785,0C808.3,0,831.7,0,855,0z"></path>
    </g>
  </defs>
</svg>
