
<svg xmlns="http://www.w3.org/2000/svg" version="1.1" xmlns:xlink="http://www.w3.org/1999/xlink" x="0px" y="0px" viewBox="0 0 600 194">
<defs>
<g id="Layer0_0_FILL">
<path fill="#337FBA" stroke="none" d="
M 85.65 92.2
Q 85.6 92.25 85.5 92.4 85.1 94.65 83.65 96.45 83.3 96.85 82.85 97.2 79.95 100.05 75.85 100.05 71.75 100.05 68.85 97.2 68.45 96.85 68.15 96.45 66.65 94.65 66.2 92.4 66.2 92.25 66.15 92.2 66 92.1 65.9 92.1
L 54.7 92.1
Q 54.6 92.1 54.45 92.2 54.4 92.3 54.4 92.4
L 54.4 141.85
Q 54.4 141.9 54.45 142.05 54.6 142.1 54.7 142.1
L 94.9 142.1
Q 95.1 141.95 95.15 141.85
L 95.15 121.8
Q 96.05 122.1 97.05 122.1 98.25 122.1 99.35 121.65 100.45 121.2 101.3 120.35 103.1 118.55 103.1 116.05 103.1 113.5 101.3 111.65 100.45 110.75 99.35 110.35 98.25 109.9 97.05 109.9 96.05 109.9 95.15 110.2
L 95.15 92.4
Q 95.15 92.3 95.1 92.2 94.95 92.1 94.9 92.1
L 85.8 92.1
Q 85.75 92.1 85.65 92.2
M 89.5 97.55
Q 89.62734375 97.394921875 89.7 97.2
L 89.7 136.65 59.8 136.65 59.8 97.55 62.35 97.55
Q 63.40625 99.432421875 65.05 101.05
L 65.1 101.05
Q 69.6388671875 105.634375 75.85 105.6 82.31796875 105.62734375 86.9 101.05
L 86.9 101
Q 88.470703125 99.41953125 89.5 97.55
M 99.05 92.2
Q 98.9 92.3 98.9 92.4
L 98.9 106.1
Q 98.9 106.25 99.05 106.3 99.15 106.4 99.2 106.4 101.95 106.95 104.05 109.05 107 111.95 107 116.05 107 120.15 104.05 123 101.95 125.1 99.05 125.75 98.9 125.85 98.9 125.9
L 98.9 141.85
Q 99.15 142.1 99.2 142.1
L 139.9 142.1
Q 140 142.1 140.05 141.95 140.2 141.95 140.2 141.85
L 140.2 130.65
Q 140.2 130.5 140.05 130.45 140 130.35 139.9 130.35
L 112.3 130.35 112.3 122.75 134.2 122.75
Q 134.3 122.75 134.45 122.65 134.5 122.6 134.5 122.45
L 134.5 111.7
Q 134.5 111.55 134.45 111.55 134.3 111.5 134.2 111.5
L 112.3 111.5 112.3 103.95 139.35 103.95
Q 139.5 103.95 139.55 103.8 139.6 103.7 139.6 103.55
L 139.6 92.4
Q 139.6 92.3 139.55 92.2 139.5 92.1 139.35 92.1
L 124.05 92.1
Q 124.35 91.15 124.35 90.15 124.35 87.65 122.55 85.85 120.8 84.1 118.3 84.1 115.75 84.1 113.95 85.85 112.25 87.65 112.25 90.15 112.25 91.15 112.55 92.1
L 99.2 92.1
Q 99.15 92.1 99.05 92.2
M 95.15 50.75
Q 95.15 50.6 95 50.45 94.95 50.4 94.8 50.4 94.75 50.4 94.65 50.4
L 94.5 50.45 51.65 80.45
Q 51.3 80.7 51.2 80.8 50 82.1 50 83.95
L 50 84.05
Q 50 85.35 50.7 86.4 50.95 86.8 51.2 87.05 52.45 88.3 54.1 88.35 54.15 88.35 54.3 88.35
L 70.1 88.35
Q 69.8 89.25 69.8 90.25 69.8 92.75 71.6 94.5 73.4 96.3 75.85 96.3 78.4 96.3 80.2 94.5 81.9 92.75 81.9 90.25 81.9 89.25 81.6 88.35
L 94.9 88.35
Q 95.15 88.2 95.15 88.05
L 95.15 79.15
Q 95.15 79 95.1 78.9
L 94.75 78.8
Q 92.5 78.25 90.85 76.9 90.4 76.55 90.05 76.2 87.15 73.3 87.15 69.2 87.15 65.1 90.05 62.2 90.4 61.85 90.85 61.5 92.6 60.2 94.8 59.6
L 95 59.55
Q 95.15 59.4 95.15 59.3
L 95.15 50.75
M 81.85 66
Q 81.7326171875 66.64921875 81.65 67.3
L 81.7 67.2
Q 81.53125 68.3125 81.5 69.4 81.529296875 70.334765625 81.7 71.3
L 81.65 71.25
Q 82.1125 76.3876953125 85.85 80.25
L 85.8 80.25
Q 87.458984375 81.848046875 89.3 82.9
L 57.55 82.9 81.85 66
M 99.5 50.45
Q 99.35 50.4 99.3 50.4 99.15 50.4 99 50.45 98.9 50.6 98.9 50.75
L 98.9 63.45
Q 98.05 63.15 97.05 63.15 94.5 63.15 92.7 64.85 91 66.65 91 69.2 91 71.7 92.7 73.45 94.5 75.25 97.05 75.25 98.05 75.25 98.9 74.95
L 98.9 88.05
Q 98.9 88.2 99.2 88.35
L 108.2 88.35
Q 108.35 88.35 108.45 88.3 108.45 88.2 108.5 88.15 108.85 86.35 109.95 84.75 110.15 84.4 110.65 83.8 110.8 83.6 111.15 83.25 114.05 80.35 118.15 80.35 122.25 80.35 125.15 83.25 125.5 83.6 125.85 84.05 127.35 85.9 127.9 88.15 127.9 88.2 127.95 88.3 128 88.35 128.15 88.35
L 139.75 88.35
Q 139.9 88.35 140 88.35 141.65 88.3 142.85 87.05 143.15 86.8 143.35 86.5 144.1 85.4 144.1 84.05
L 144.1 83.95
Q 144.1 82.1 142.85 80.8 142.8 80.7 142.45 80.45
L 99.5 50.45
M 107.05 79.35
Q 107.0513671875 79.37421875 107 79.4 105.50546875 81.046484375 104.55 82.9 104.4541015625 83.08671875 104.35 83.25
L 104.35 60.6 136.3 82.9 131.75 82.9
Q 130.71484375 81.018359375 129.05 79.35 124.6251953125 74.9296875 118.1 74.9 111.64609375 74.9322265625 107.05 79.35
M 215.2 142.25
L 228.15 142.25 228.15 103.4 243.3 103.4 243.3 92.1 200.05 92.1 200.05 103.4 215.2 103.4 215.2 142.25
M 194.95 92.1
L 180.1 92.1 171.1 105 162.15 92.1 147.1 92.1 163.55 115.3 144.25 142.25 159.2 142.25 170.9 125.6 182.7 142.25 197.85 142.25 178.6 115.3 194.95 92.1
M 282.8 93.2
Q 279.45 92.1 275.35 92.1
L 251.75 92.1 251.75 142.25 264.6 142.25 264.6 126.5 269.8 126.5 272.2 126.2 284.1 142.25 298.9 142.25 285.5 124.2
Q 287.1 123.3 288.45 122.25 289.2 121.5 289.9 120.8 290.4 120.2 290.85 119.5 293.3 116.05 293.75 112.85 294.1 109.6 294.1 108.55 294 107.45 293.8 105.85 293.45 104.15 292.2 101.4 291.35 99.45 289.9 97.8 289.2 97.15 288.55 96.45
L 288.45 96.45
Q 286 94.25 282.8 93.2
M 264.6 103
L 274.65 103
Q 277.25 103.05 278.8 104.35 280.35 105.65 280.75 107.55 281.2 109.35 280.75 111.4 280.25 113.5 278.8 114.65 277.25 115.95 274.65 115.95
L 264.6 115.95 264.6 103
M 358.55 90.95
L 358.55 98.45 375.6 98.45 375.6 142.6 383.7 142.6 383.7 98.45 400.95 98.45 400.95 90.95 358.55 90.95
M 337.05 91.8
L 324.55 91.8 303.45 142.25 317.15 142.25 321.4 131.65 340.05 131.65 344.3 142.25 358.15 142.25 337.05 91.8
M 335.95 121.35
L 325.45 121.35 330.6 107.95 335.95 121.35
M 446.7 98.45
L 446.7 90.95 409.8 90.95 409.8 142.6 447.55 142.6 447.55 135.2 417.95 135.2 417.95 118.85 441.3 118.85 441.3 111.35 417.95 111.35 417.95 98.45 446.7 98.45
M 495.6 93.4
Q 492.6 91.75 489.05 90.8 485.6 90 481.55 90 475.65 90 470.75 91.9 465.85 93.7 461.95 97.6 458.05 101.35 456.2 106.15 454.25 111 454.25 116.85 454.25 128.45 461.95 136.05 469.9 143.65 481.55 143.65 485.95 143.65 489.7 142.55 493.5 141.55 496.7 139.45
L 496.7 131.3
Q 493.75 133.7 490 134.85 486.3 136 481.9 136 477.75 136 474.3 134.7 470.8 133.4 468 130.6 465.35 127.85 464 124.4 462.6 120.95 462.6 116.85 462.6 112.7 463.9 109.2 465.3 105.8 467.95 103.05 470.75 100.3 474.15 98.95 477.5 97.6 481.65 97.6 485.45 97.6 488.9 98.6 492.45 99.6 495.6 101.7
L 495.6 93.4
M 514.85 90.95
L 506.7 90.95 506.7 142.6 514.85 142.6 514.85 118.85 541.85 118.85 541.85 142.6 550 142.6 550 90.95 541.85 90.95 541.85 111.35 514.85 111.35 514.85 90.95 Z"/>
</g>
</defs>

<g transform="matrix( 1, 0, 0, 1, 0,0) ">
<use xlink:href="#Layer0_0_FILL"/>
</g>
</svg>
