<svg xmlns="http://www.w3.org/2000/svg" viewBox="0 0 500 93.25"><defs><style>.cls-1{fill:#337fba;}</style></defs><title>logo-bold</title><g id="Layer_2" data-name="Layer 2"><g id="Layer_1-2" data-name="Layer 1"><g id="Layer0_0_FILL" data-name="Layer0 0 FILL"><path class="cls-1" d="M35.65,41.8a1.49,1.49,0,0,0-.15.2,8.82,8.82,0,0,1-1.85,4,5.74,5.74,0,0,1-.8.75,9.62,9.62,0,0,1-7,2.85,9.62,9.62,0,0,1-7-2.85,4.92,4.92,0,0,1-.7-.75,9,9,0,0,1-2-4,.29.29,0,0,0,0-.2.49.49,0,0,0-.25-.1H4.7a.49.49,0,0,0-.25.1.44.44,0,0,0,0,.2V91.45a.82.82,0,0,0,0,.2.82.82,0,0,0,.25.05H44.9a.86.86,0,0,0,.25-.25V71.4a6.13,6.13,0,0,0,4.2-.15,6.09,6.09,0,0,0,3.75-5.6,6.09,6.09,0,0,0-1.8-4.4,5,5,0,0,0-2-1.3,6.13,6.13,0,0,0-4.2-.15V42a.44.44,0,0,0-.05-.2.52.52,0,0,0-.2-.1H35.8s-.08,0-.15.1m3.85,5.35a1.22,1.22,0,0,0,.2-.35V86.25H9.8V47.15h2.55a15.66,15.66,0,0,0,2.7,3.5h0A14.5,14.5,0,0,0,25.85,55.2,15,15,0,0,0,36.9,50.65V50.6a15.46,15.46,0,0,0,2.6-3.45m9.55-5.35q-.15.1-.15.2V55.7a.2.2,0,0,0,.15.2q.1.1.15.1a9.34,9.34,0,0,1,4.85,2.65,9.46,9.46,0,0,1,2.95,7,9.3,9.3,0,0,1-2.95,6.95,10,10,0,0,1-5,2.75q-.15.1-.15.15v16q.25.25.3.25H89.9q.1,0,.15-.15.15,0,.15-.1V80.25a.2.2,0,0,0-.15-.2.16.16,0,0,0-.15-.1H62.3v-7.6H84.2a.49.49,0,0,0,.25-.1.29.29,0,0,0,.05-.2V61.3q0-.15-.05-.15a.82.82,0,0,0-.25-.05H62.3V53.55H89.35a.2.2,0,0,0,.2-.15.56.56,0,0,0,.05-.25V42a.44.44,0,0,0-.05-.2.2.2,0,0,0-.2-.1H74.05a6.44,6.44,0,0,0,.3-1.95,5.87,5.87,0,0,0-1.8-4.3A5.79,5.79,0,0,0,68.3,33.7a5.9,5.9,0,0,0-6.05,6.05,6.44,6.44,0,0,0,.3,1.95H49.2s-.08,0-.15.1M45.15.35A.43.43,0,0,0,45,0a.29.29,0,0,0-.2,0h-.15L44.5,0,1.65,30a4.34,4.34,0,0,0-.45.35A4.48,4.48,0,0,0,0,33.55v.1A4.14,4.14,0,0,0,.7,36a3.67,3.67,0,0,0,.5.65,4.17,4.17,0,0,0,2.9,1.3h16a6,6,0,0,0-.3,1.9,5.71,5.71,0,0,0,1.8,4.25,5.81,5.81,0,0,0,4.25,1.8,6.07,6.07,0,0,0,5.75-8H44.9q.25-.15.25-.3v-8.9a.56.56,0,0,0-.05-.25l-.35-.1a9.7,9.7,0,0,1-3.9-1.9,8.58,8.58,0,0,1-.8-.7,9.54,9.54,0,0,1-2.9-7,9.54,9.54,0,0,1,2.9-7,8.58,8.58,0,0,1,.8-.7,11.73,11.73,0,0,1,4-1.9l.2,0a.41.41,0,0,0,.15-.25V.35M31.85,15.6q-.12.65-.2,1.3l0-.1a18.14,18.14,0,0,0-.2,2.2,13.29,13.29,0,0,0,.2,1.9l0-.05a14.5,14.5,0,0,0,4.2,9h0a17.73,17.73,0,0,0,3.5,2.65H7.55l24.3-16.9M49.5,0l-.2,0A.94.94,0,0,0,49,0a.54.54,0,0,0-.1.3V13a5.52,5.52,0,0,0-1.85-.3,5.82,5.82,0,0,0-6.05,6,6,6,0,0,0,6.05,6.05,5.52,5.52,0,0,0,1.85-.3v13.1q0,.15.3.3h9a.56.56,0,0,0,.25,0,.2.2,0,0,1,.05-.15,9,9,0,0,1,1.45-3.4,7.29,7.29,0,0,1,.7-.95,5.71,5.71,0,0,1,.5-.55,9.9,9.9,0,0,1,14,0,8.58,8.58,0,0,1,.7.8,10.34,10.34,0,0,1,2.05,4.1.38.38,0,0,0,0,.15.29.29,0,0,0,.2,0H90a4,4,0,0,0,2.85-1.3,2.58,2.58,0,0,0,.5-.55,4.25,4.25,0,0,0,.75-2.45v-.1a4.38,4.38,0,0,0-1.25-3.15,1.53,1.53,0,0,0-.4-.35L49.5,0m7.55,28.9s0,0-.05.05a16.35,16.35,0,0,0-2.45,3.5q-.1.19-.2.35V10.2l32,22.3H81.75a15.85,15.85,0,0,0-2.7-3.55,15,15,0,0,0-11-4.45,15.49,15.49,0,0,0-11,4.45M165.2,91.85h12.95V53H193.3V41.7H150.05V53H165.2V91.85M144.95,41.7H130.1l-9,12.9-9-12.9h-15l16.45,23.2L94.25,91.85H109.2L120.9,75.2l11.8,16.65h15.15L128.6,64.9l16.35-23.2m87.85,1.1a23.79,23.79,0,0,0-7.45-1.1h-23.6V91.85H214.6V76.1h5.2l2.4-.3,11.9,16.05h14.8L235.5,73.8a23.8,23.8,0,0,0,3-1.95l1.45-1.45a13.06,13.06,0,0,0,1-1.3,15.33,15.33,0,0,0,2.9-6.65q.35-3.25.35-4.3t-.3-2.7A22.38,22.38,0,0,0,242.2,51a13.76,13.76,0,0,0-2.3-3.6q-.7-.65-1.35-1.35h-.1a15.67,15.67,0,0,0-5.65-3.25m-18.2,9.8h10a6.45,6.45,0,0,1,4.15,1.35,5.59,5.59,0,0,1,2,3.2,8.34,8.34,0,0,1,0,3.85,5.66,5.66,0,0,1-2,3.25,6.25,6.25,0,0,1-4.15,1.3h-10V52.6m93.95-12.05V48H325.6V92.2h8.1V48H351v-7.5h-42.4M287,41.4h-12.5l-21.1,50.45h13.7l4.25-10.6H290l4.25,10.6h13.85L287,41.4M286,70.95h-10.5l5.15-13.4L286,70.95M396.7,48v-7.5H359.8V92.2h37.75V84.8H368V68.45H391.3v-7.5H368V48H396.7m48.9-5A29.19,29.19,0,0,0,439,40.4a33.18,33.18,0,0,0-7.5-.8,29.64,29.64,0,0,0-10.8,1.9,24.12,24.12,0,0,0-8.8,5.7,23.49,23.49,0,0,0-5.75,8.55,28.43,28.43,0,0,0-2,10.7q0,11.6,7.7,19.2a27.28,27.28,0,0,0,19.6,7.6,28.85,28.85,0,0,0,8.15-1.1,23.62,23.62,0,0,0,7-3.1V80.9a19.62,19.62,0,0,1-6.7,3.55,27.18,27.18,0,0,1-8.1,1.15,21.4,21.4,0,0,1-7.6-1.3,17.44,17.44,0,0,1-6.3-4.1,18.68,18.68,0,0,1-4-6.2,19.89,19.89,0,0,1-1.4-7.55,21.81,21.81,0,0,1,1.3-7.65A19.52,19.52,0,0,1,418,52.65a18.61,18.61,0,0,1,6.2-4.1,19.91,19.91,0,0,1,7.5-1.35,25.91,25.91,0,0,1,7.25,1,23.51,23.51,0,0,1,6.7,3.1V43m19.25-2.45H456.7V92.2h8.15V68.45h27V92.2H500V40.55h-8.15v20.4h-27Z"/></g></g></g></svg>