<svg xmlns="http://www.w3.org/2000/svg" viewBox="0 0 97.94 18.26"><defs><style>.cls-1{fill:#337fba;}</style></defs><title>logo</title><g id="Layer_2" data-name="Layer 2"><g id="Layer_1-2" data-name="Layer 1"><g id="Layer0_0_FILL" data-name="Layer0 0 FILL"><path class="cls-1" d="M18.43,6.59h0A.87.87,0,0,0,18.19,6l-.08-.07L9.7,0H9.6a.13.13,0,0,0,0,.06V2.55a1.15,1.15,0,0,0-.37-.06A1.16,1.16,0,0,0,8,3.68a1.13,1.13,0,0,0,.34.83,1.2,1.2,0,0,0,1.21.3V7.38s0,0,.06.06h1.81v0a1.79,1.79,0,0,1,.28-.66l.14-.19.1-.11a1.94,1.94,0,0,1,2.74,0l.14.16a2,2,0,0,1,.4.8v0h2.36a.83.83,0,0,0,.56-.25l.1-.11a.85.85,0,0,0,.14-.48m-1-.07a.13.13,0,0,1,0,.06H15.88a2.8,2.8,0,0,0-.55-.76,2.7,2.7,0,0,0-2-.8,2.78,2.78,0,0,0-2,.8,2.84,2.84,0,0,0-.51.76h-.4v-5l7,4.88h0v0M14.51,8.17a1.29,1.29,0,0,0,.06-.38,1.16,1.16,0,0,0-.35-.85,1.13,1.13,0,0,0-.83-.34,1.16,1.16,0,0,0-1.19,1.19,1.29,1.29,0,0,0,.06.38H9.61l0,0v2.68a0,0,0,0,0,0,0h0a1.93,1.93,0,0,1,.95,3.26,2,2,0,0,1-1,.54l0,0v3.12l.06.05h8l0,0a0,0,0,0,0,0,0V15.72a0,0,0,0,0,0,0H12.21v-1.5h4.33a.06.06,0,0,0,0,0V12s0,0,0,0H12.21V10.49H17.5a0,0,0,0,0,0,0,.06.06,0,0,0,0,0V8.19h-3M7,8.19l0,0A1.79,1.79,0,0,1,6.59,9l-.16.16a1.89,1.89,0,0,1-1.37.55A1.89,1.89,0,0,1,3.7,9.17.73.73,0,0,1,3.56,9a1.72,1.72,0,0,1-.38-.79.06.06,0,0,0,0,0H.87V18H8.79l.06-.06V14a1.15,1.15,0,0,0,.37.06A1.2,1.2,0,0,0,9.67,14a1.13,1.13,0,0,0,.38-.25,1.16,1.16,0,0,0,.35-.85A1.2,1.2,0,0,0,10,12a1.13,1.13,0,0,0-.38-.25,1.2,1.2,0,0,0-.45-.08,1.15,1.15,0,0,0-.37.06V8.19H7M7.61,9H8v8.1H1.71V9h.85a2.6,2.6,0,0,0,.55.75,2.68,2.68,0,0,0,2,.83A2.84,2.84,0,0,0,7.61,9M8.75,0h0L.32,5.89.24,6A.87.87,0,0,0,0,6.58H0a.82.82,0,0,0,.14.47.66.66,0,0,0,.1.13.83.83,0,0,0,.56.25H3.94a1.15,1.15,0,0,0-.06.37,1.11,1.11,0,0,0,.35.83A1.14,1.14,0,0,0,5.07,9a1.15,1.15,0,0,0,.85-.35,1.13,1.13,0,0,0,.34-.83,1.15,1.15,0,0,0-.06-.37h2.6s.06,0,.06-.06V5.63a.06.06,0,0,0,0,0l-.07,0A1.8,1.8,0,0,1,8,5.19l-.16-.14a1.86,1.86,0,0,1-.56-1.37,1.86,1.86,0,0,1,.56-1.37L8,2.17a2.19,2.19,0,0,1,.78-.37h0l0,0V.07a.08.08,0,0,0,0-.06H8.75M6.66,2.5a2.25,2.25,0,0,0-.24.83,2.79,2.79,0,0,0,0,.4,2.06,2.06,0,0,0,0,.34,2.63,2.63,0,0,0,.75,1.62A2.94,2.94,0,0,0,8,6.28v.31H.95a.13.13,0,0,1,0-.06v0l0,0,.38-.27L6.66,2.5M34.9,10.39h3V8.17H29.4v2.22h3V18H34.9V10.39M22,8.17H19l3.22,4.55L18.46,18h2.94l2.29-3.26L26,18h3l-3.77-5.28,3.2-4.55H25.49L23.72,10.7,22,8.17m43.4,1.24h3.37V7.95h-8.3V9.41h3.33v8.65h1.59V9.41M46.73,9h0a3.19,3.19,0,0,0-1.11-.64,4.67,4.67,0,0,0-1.45-.21H39.51V18H42V14.91h1l.47-.06L45.85,18h2.91l-2.62-3.54a4.1,4.1,0,0,0,.58-.38l.28-.28a1.76,1.76,0,0,0,.18-.25,3,3,0,0,0,.56-1.3q.07-.64.07-.85t-.06-.52a4.54,4.54,0,0,0-.31-.88A2.81,2.81,0,0,0,47,9.29L46.73,9M42,10.3h2a1.31,1.31,0,0,1,.82.27,1.14,1.14,0,0,1,.38.62,1.73,1.73,0,0,1,0,.76,1.12,1.12,0,0,1-.38.64,1.25,1.25,0,0,1-.82.25H42V10.3M56.22,8.12H53.78L49.65,18h2.68l.83-2.07h3.66L57.65,18h2.71L56.22,8.12M56,13.9H54l1-2.63,1,2.63m41.93-6H96.35v4H91.05v-4H89.46V18.07h1.59V13.41h5.29v4.66h1.59V7.95m-25.87,4V9.41H77.7V7.95H70.48V18.07h7.39V16.61h-5.8v-3.2h4.57V11.94H72.07M86,7.92a6.56,6.56,0,0,0-1.47-.16,5.88,5.88,0,0,0-2.12.37,4.72,4.72,0,0,0-1.72,1.12,4.65,4.65,0,0,0-1.13,1.68A5.54,5.54,0,0,0,79.18,13a5.09,5.09,0,0,0,1.51,3.77,5.34,5.34,0,0,0,3.84,1.48,5.73,5.73,0,0,0,1.59-.21,4.61,4.61,0,0,0,1.37-.61v-1.6a3.9,3.9,0,0,1-1.31.69,5.26,5.26,0,0,1-1.58.23,4.23,4.23,0,0,1-1.5-.25,3.43,3.43,0,0,1-1.23-.8,3.65,3.65,0,0,1-.79-1.21A4,4,0,0,1,80.82,13a4.31,4.31,0,0,1,.25-1.5,3.69,3.69,0,0,1,.79-1.2,3.74,3.74,0,0,1,1.21-.8,3.88,3.88,0,0,1,1.47-.27,5.06,5.06,0,0,1,1.43.2,4.74,4.74,0,0,1,1.31.61V8.43A5.71,5.71,0,0,0,86,7.92Z"/></g></g></g></svg>