<svg version="1.1"
     xmlns="http://www.w3.org/2000/svg" xmlns:xlink="http://www.w3.org/1999/xlink" xmlns:a="http://ns.adobe.com/AdobeSVGViewerExtensions/3.0/"
     x="0px" y="0px" viewBox="0 0 1170 134" style="enable-background:new 0 0 1170 134;"
     xml:space="preserve">
<g id="service-1-form">
    <path class="st0" d="M1095,0c25,0,50,0,75,0c0,44.7,0,89.3,0,134c-390,0-780,0-1170,0C0,89.3,0,44.7,0,0c25.3,0,50.7,0,76,0
        c0.6,19.8,15.6,35,34.8,35c19.5,0.1,34.6-15,35.2-35c56,0,112,0,168,0c0.6,19.8,15.6,35,34.8,35c19.5,0.1,34.6-15,35.2-35
        c56.7,0,113.3,0,170,0c0.6,19.8,15.6,35,34.8,35c19.5,0.1,34.6-15,35.2-35c53.7,0,107.3,0,161,0c0.6,19.8,15.6,35,34.8,35
        c19.5,0.1,34.6-15,35.2-35c55.7,0,111.3,0,167,0c1.6,20.2,17,35,36.5,35C1078,35,1093.5,20.2,1095,0z"/>
</g>
<image clip-path="url(#service-1-form)"  xlink:href="assets/images/content/service-1-img.jpg"></image>
</svg>


